<svg fill="#67645a" xmlns="http://www.w3.org/2000/svg" xmlns:xlink="http://www.w3.org/1999/xlink" version="1.1" x="0px" y="0px" viewBox="0 0 20 20" enable-background="new 0 0 20 20" xml:space="preserve"><rect x="-167" y="-33" display="none" fill="#67645a" width="198" height="87"></rect><path d="M-95.549-16.56c-2.931-2.333-7.193-1.852-9.526,1.073l-26.456,39.805l-11.547-11.542c-2.377-2.383-6.106-2.502-8.333-0.281  c-2.222,2.222-2.099,5.95,0.278,8.331l17.414,17.417c2.035,2.032,5.004,2.308,7.232,0.986c0.959-0.428,1.84-1.057,2.541-1.933  L-94.479-7.04C-92.143-9.965-92.629-14.225-95.549-16.56z"></path><path d="M-45.699-9.373c-1.954-1.556-4.795-1.235-6.351,0.715l-17.637,26.537l-7.698-7.695c-1.585-1.588-4.071-1.668-5.555-0.187  c-1.481,1.481-1.399,3.967,0.186,5.554l11.609,11.611c1.357,1.354,3.336,1.538,4.821,0.657c0.64-0.285,1.227-0.704,1.694-1.288  l19.645-29.558C-43.428-4.977-43.753-7.816-45.699-9.373z"></path><path d="M-7.274-2.78c-1.465-1.167-3.597-0.926-4.763,0.537l-13.228,19.902l-5.774-5.771c-1.188-1.191-3.053-1.251-4.166-0.14  c-1.111,1.11-1.05,2.975,0.139,4.165l8.707,8.709c1.018,1.016,2.502,1.153,3.616,0.492c0.48-0.214,0.92-0.527,1.271-0.966  L-6.739,1.98C-5.571,0.518-5.814-1.612-7.274-2.78z"></path><path d="M19.15,0.813c-0.977-0.778-2.397-0.618-3.175,0.358L7.157,14.439l-3.85-3.847C2.515,9.798,1.272,9.758,0.53,10.499  c-0.741,0.74-0.7,1.983,0.093,2.777l5.805,5.806c0.678,0.677,1.668,0.769,2.41,0.328c0.32-0.143,0.614-0.352,0.848-0.644  l9.822-14.779C20.286,3.012,20.124,1.592,19.15,0.813z"></path></svg>